<?xml version="1.0"?>
<svg xmlns="http://www.w3.org/2000/svg" height="512px" viewBox="-16 0 480 480.10467" width="512px" class=""><g><path d="m392.066406 112.105469h48c4.417969 0 8 3.582031 8 8v352c0 4.417969-3.582031 8-8 8h-48c-4.417968 0-8-3.582031-8-8v-352c0-4.417969 3.582032-8 8-8zm0 0" fill="#333" data-original="#333" class="" style="fill:#FDFCFC" data-old_color="#FBF9F9"/><path d="m79.1875 320.824219-30.082031 10.960937c-.871094.320313-1.789063.484375-2.71875.480469-1.160157 0-2.304688-.246094-3.359375-.722656-1.921875-.925781-3.410156-2.558594-4.160156-4.558594l-21.921876-60.160156c-1.5-4.152344.648438-8.734375 4.800782-10.238281l20.402344-7.441407c1.859374-.695312 3.914062-.664062 5.757812.082031 3.332031 1.40625 6.828125 2.398438 10.402344 2.957032 2.890625.464844 5.308594 2.453125 6.316406 5.199218l19.363281 53.203126c1.5 4.152343-.648437 8.734374-4.800781 10.238281zm0 0" fill="#999" data-original="#999" class="active-path" style="fill:#E2E0E2" data-old_color="#DFDBDE"/><path d="m340.226562 242.824219-99.601562 36.320312-7.519531 2.71875c-.199219.101563-.417969.15625-.640625.160157l-6.878906 2.480468-22.558594 8.242188-15.039063 5.4375-103.363281 37.679687c-.867188.320313-1.789062.484375-2.71875.480469-1.15625 0-2.304688-.242188-3.359375-.71875-1.921875-.929688-3.410156-2.5625-4.160156-4.558594l-2.71875-7.523437-20.5625-56.476563-1.519531-4.242187c-.957032-2.6875-.410157-5.6875 1.4375-7.863281 1.84375-2.175782 4.714843-3.203126 7.523437-2.695313 9.648437 1.738281 19.589844.882813 28.800781-2.480469l195.519532-71.199218c9.242187-3.320313 17.421874-9.070313 23.679687-16.640626 1.867187-2.15625 4.699219-3.210937 7.519531-2.800781 2.824219.527344 5.164063 2.503907 6.160156 5.199219l1.519532 4.160156 23.28125 64.082032c1.5 4.152343-.648438 8.734374-4.800782 10.238281zm0 0" fill="#2980b9" data-original="#2980B9" class="" style="fill:#3A9AD9" data-old_color="#3a9ad9"/><path d="m335.667969 125.945312c-.015625 16.902344-5.960938 33.265626-16.800781 46.238282-8.105469 9.730468-18.652344 17.128906-30.558594 21.441406l-195.523438 71.199219c-7.816406 2.859375-16.074218 4.320312-24.398437 4.320312-4.269531 0-8.527344-.402343-12.71875-1.199219-4.75-.722656-9.398438-2.011718-13.839844-3.839843-19.234375-7.511719-34.285156-22.972657-41.28125-42.402344-1.5-4.152344.648437-8.734375 4.800781-10.238281l315.757813-114.878906c4.15625-1.5 8.738281.648437 10.242187 4.796874 2.878906 7.867188 4.34375 16.183594 4.320313 24.5625zm0 0" fill="#3498db" data-original="#3498DB" class="" style="fill:#3A9AD9" data-old_color="#3a9ad9"/><path d="m264.066406 344.105469c-1.757812-.160157-47.039062 30.71875-48 32l-28.078125-77.921875 15.039063-5.4375 22.558594-8.242188 6.878906-2.480468c.222656-.003907.441406-.058594.640625-.160157l7.519531-2.71875zm0 0" fill="#666" data-original="#666" class="" style="fill:#F7F7F7" data-old_color="#F4F3F4"/><path d="m384.066406 310.90625v59.679688l-128 45.519531c.480469-1.519531 17.359375-62.640625 16-64zm0 0" fill="#666" data-original="#666" class="" style="fill:#F7F7F7" data-old_color="#F4F3F4"/><path d="m304.066406 376.105469c0 26.507812-21.488281 48-48 48-26.507812 0-48-21.492188-48-48 0-26.511719 21.492188-48 48-48 26.511719 0 48 21.488281 48 48zm0 0" fill="#333" data-original="#333" class="" style="fill:#FDFCFC" data-old_color="#FBF9F9"/><path d="m180.371094 85.113281c-4.042969 1.609375-6.054688 6.15625-4.53125 10.230469 1.523437 4.078125 6.023437 6.1875 10.132812 4.753906 14.226563-5.34375 29.914063-5.34375 44.140625 0 4.109375 1.433594 8.609375-.675781 10.132813-4.753906 1.523437-4.074219-.488282-8.621094-4.53125-10.230469-17.84375-6.683593-37.5-6.683593-55.34375 0zm0 0" data-original="#000000" class="" style="fill:#000000"/><path d="m255.898438 67.800781c3.683593-.003906 6.890624-2.523437 7.765624-6.101562s-.808593-7.292969-4.078124-8.996094c-32.308594-16.734375-70.730469-16.734375-103.039063 0-2.640625 1.253906-4.390625 3.851563-4.558594 6.769531-.167969 2.921875 1.273438 5.699219 3.753907 7.246094 2.480468 1.546875 5.609374 1.621094 8.15625.1875 27.699218-14.34375 60.636718-14.34375 88.335937 0 1.132813.585938 2.390625.894531 3.664063.894531zm0 0" data-original="#000000" class="" style="fill:#000000"/><path d="m141.898438 34.570312c40.636718-24.769531 91.699218-24.769531 132.335937 0 3.757813 2.097657 8.503906.847657 10.742187-2.828124 2.234376-3.679688 1.15625-8.46875-2.4375-10.835938-45.734374-27.875-103.207031-27.875-148.945312 0-3.777344 2.292969-4.980469 7.210938-2.6875 10.992188 2.292969 3.777343 7.214844 4.980468 10.992188 2.6875zm0 0" data-original="#000000" class="" style="fill:#000000"/><path d="m440.066406 112.105469h-48c-4.417968 0-8 3.582031-8 8v190.800781l-84.054687 30.597656c-10.585938-13.5-26.789063-21.390625-43.945313-21.398437h-.503906l-14.925781-41.007813 99.605469-36.304687c4.152343-1.503907 6.300781-6.085938 4.800781-10.242188l-23.304688-64.125c9.027344-12.328125 13.90625-27.203125 13.929688-42.480469.015625-8.390624-1.449219-16.714843-4.335938-24.59375-1.503906-4.152343-6.089843-6.300781-10.242187-4.800781l-315.757813 114.914063c-4.15625 1.503906-6.308593 6.09375-4.800781 10.246094 4.886719 13.394531 13.648438 25.027343 25.175781 33.417968l-4 1.464844c-4.15625 1.503906-6.304687 6.089844-4.800781 10.246094l21.929688 60.160156c.722656 2 2.207031 3.628906 4.132812 4.527344 1.921875.902344 4.125 1 6.121094.273437l22.527344-8.207031 2.730468 7.496094c.722656 2 2.214844 3.628906 4.144532 4.527344 1.921874.898437 4.125.996093 6.117187.261718l103.386719-37.597656 18.695312 51.40625c-9.929687 18.128906-9.066406 40.257812 2.25 57.554688 11.3125 17.300781 31.238282 26.960937 51.828125 25.128906 20.589844-1.832032 38.496094-14.855469 46.578125-33.882813l76.71875-27.917969v101.535157c0 4.417969 3.582032 8 8 8 4.417969 0 8-3.582031 8-8v-344h32v344c0 4.417969 3.582032 8 8 8 4.417969 0 8-3.582031 8-8v-352c0-4.417969-3.582031-8-8-8zm-121.550781 2.445312c.765625 3.75 1.152344 7.566407 1.152344 11.394531-.011719 23.53125-14.707031 44.554688-36.800781 52.648438l-195.535157 71.199219c-3.882812 1.386719-7.910156 2.332031-12 2.824219-.800781.09375-1.527343.28125-2.304687.34375-.320313 0-.648438 0-.96875 0-2.128906.15625-4.265625.1875-6.398438.097656-.136718 0-.265625-.042969-.402344-.050782-2.332031-.117187-4.660156-.382812-6.960937-.800781-3.617187-.570312-7.152344-1.574219-10.535156-2.980469-12.378907-4.8125-22.632813-13.890624-28.902344-25.601562zm-267.34375 199.457031-16.449219-45.101562 10.082032-3.679688c.742187.261719 1.484374.429688 2.230468.660157.984375.3125 1.953125.617187 2.917969.867187.394531.101563.800781.253906 1.175781.351563l1.832032 5.039062 13.234374 36.417969zm32.800781-3.414062-11.371094-31.289062-3.695312-10.144532c.992188 0 1.984375-.101562 2.976562-.152344.992188-.046874 1.945313-.054687 2.910157-.144531 1.136719-.101562 2.273437-.292969 3.410156-.453125.886719-.121094 1.785156-.203125 2.671875-.363281 1.230469-.222656 2.457031-.535156 3.679688-.796875.800781-.183594 1.601562-.320312 2.335937-.53125 1.996094-.53125 3.964844-1.15625 5.914063-1.871094l195.527343-71.199218c2.644531-.992188 5.226563-2.140626 7.734375-3.441407.59375-.296875 1.175782-.601562 1.753906-.910156 2.433594-1.296875 4.789063-2.726563 7.0625-4.289063.265626-.191406.511719-.398437.800782-.589843 1.289062-.929688 2.574218-1.855469 3.800781-2.867188l17.78125 48.953125-99.070313 36.121094c-.207031.054688-.410156.128906-.617187.199219l-140.871094 51.257812zm141.597656-26.023438 13.847657 38.054688c-7.835938 2.46875-15.035157 6.632812-21.078125 12.199219l-15.3125-42.054688zm30.496094 131.535157c-22.089844 0-40-17.910157-40-40 0-22.09375 17.910156-40 40-40s40 17.90625 40 40c-.027344 22.078125-17.917968 39.972656-40 40zm52.046875-60.527344 75.953125-27.648437v25.597656l-72.183594 26.25c.078126-1.226563.183594-2.402344.183594-3.6875-.011718-7.027344-1.351562-13.988282-3.953125-20.511719zm0 0" data-original="#000000" class="" style="fill:#000000"/></g> </svg>
