<?xml version="1.0"?>
<svg xmlns="http://www.w3.org/2000/svg" height="512px" viewBox="-6 0 512 512.00034" width="512px" class=""><g><g fill="#bddbff"><path d="m419.851562 203.300781-169.5-137.21875 165.214844 133.785157zm0 0" data-original="#000000" class="active-path" style="fill:#3A9AD9" data-old_color="#3a9ad9"/><path d="m250.351562 66.082031-169.5 137.21875 4.285157-3.433593zm0 0" data-original="#000000" class="active-path" style="fill:#3A9AD9" data-old_color="#3a9ad9"/><path d="m357.984375 97.941406-107.632813-87.183594-239.589843 193.953126 27.125 33.367187 40.253906-32.59375v-.019531l2.710937-2.164063 169.5-137.21875 169.5 137.21875 2.710938 2.164063v.019531l40.253906 32.59375 27.125-33.367187-67.378906-54.570313zm0 0" data-original="#000000" class="active-path" style="fill:#3A9AD9" data-old_color="#3a9ad9"/><path d="m78.140625 205.464844v.019531l2.710937-2.183594zm0 0" data-original="#000000" class="active-path" style="fill:#3A9AD9" data-old_color="#3a9ad9"/><path d="m419.851562 203.300781 2.710938 2.183594v-.019531zm0 0" data-original="#000000" class="active-path" style="fill:#3A9AD9" data-old_color="#3a9ad9"/><path d="m422.5625 59.945312h-64.578125v37.996094l64.578125 52.199219zm0 0" data-original="#000000" class="active-path" style="fill:#3A9AD9" data-old_color="#3a9ad9"/><path d="m274.570312 240.984375c-8.71875-5.691406-16.832031-12.253906-24.21875-19.589844-6.03125 6.023438-12.585937 11.5-19.589843 16.359375-16.960938 11.953125-35.804688 20.976563-55.753907 26.691406v74.375c-.003906 12.726563 3.78125 25.164063 10.871094 35.734376 4.261719 6.574218 9.742188 12.273437 16.144532 16.789062l48.328124 34.550781 48.328126-34.550781c16.953124-12.121094 27.011718-31.683594 27.015624-52.523438v-74.375c-18.136718-5.179687-35.375-13.089843-51.125-23.460937zm0 0" data-original="#000000" class="active-path" style="fill:#3A9AD9" data-old_color="#3a9ad9"/></g><path d="m242.742188 213.785156c-5.617188 5.589844-11.714844 10.675782-18.222657 15.195313-15.890625 11.15625-33.515625 19.609375-52.15625 25.027343-4.777343 1.210938-8.121093 5.511719-8.117187 10.4375v74.375c-.023438 14.8125 4.371094 29.292969 12.613281 41.597657 4.996094 7.691406 11.410156 14.355469 18.902344 19.644531l48.324219 34.539062c3.746093 2.679688 8.785156 2.679688 12.53125 0l48.316406-34.539062c19.757812-14.144531 31.496094-36.941406 31.523437-61.242188v-74.375c0-4.933593-3.351562-9.234374-8.136719-10.4375-16.953124-4.914062-33.074218-12.335937-47.832031-22.023437-8.105469-5.285156-15.652343-11.382813-22.527343-18.199219-4.269532-4.039062-10.949219-4.039062-15.21875 0zm25.90625 36.183594c14.410156 9.425781 29.964843 16.972656 46.28125 22.464844v66.386718c0 17.371094-8.386719 33.671876-22.515626 43.773438l-42.0625 30.074219-42.117187-30.136719c-5.320313-3.769531-9.875-8.515625-13.410156-13.992188-5.898438-8.789062-9.050781-19.132812-9.050781-29.71875v-66.386718c18.1875-6.121094 35.40625-14.820313 51.125-25.832032 4.671874-3.246093 9.164062-6.75 13.453124-10.492187 5.777344 5.027344 11.890626 9.660156 18.296876 13.859375zm0 0" fill="#3d9ae2" data-original="#3D9AE2" class="" style="fill:#0E0D0D" data-old_color="#010101"/><path d="m225.671875 321.417969-15.21875 15.21875 21.523437 21.527343c4.203126 4.199219 11.019532 4.199219 15.222657 0l53.8125-53.816406-15.21875-15.21875-46.203125 46.203125zm0 0" fill="#3d9ae2" data-original="#3D9AE2" class="" style="fill:#0E0D0D" data-old_color="#010101"/><path d="m496.710938 196.347656-63.386719-51.308594v-85.09375c0-5.941406-4.816407-10.761718-10.761719-10.761718h-64.578125c-5.945313 0-10.765625 4.820312-10.765625 10.761718v15.394532l-90.097656-72.945313c-3.949219-3.191406-9.589844-3.191406-13.539063 0l-239.589843 193.953125c-4.621094 3.742188-5.335938 10.519532-1.59375 15.140625.003906.003907.007812.007813.011718.015625l27.125 33.363282c3.742188 4.605468 10.507813 5.308593 15.121094 1.574218l22.722656-18.394531v262.425781h-32.289062v21.527344h430.523437v-21.527344h-32.289062v-262.425781l22.722656 18.394531c4.609375 3.734375 11.375 3.03125 15.121094-1.574218l27.125-33.363282c3.746093-4.613281 3.046875-11.394531-1.566407-15.140625-.007812-.003906-.011718-.011719-.015624-.015625zm-127.964844-125.636718h43.050781v56.894531l-43.050781-34.84375zm43.054687 419.761718h-322.898437v-279.839844l161.449218-130.707031 161.449219 130.707031zm49.445313-267.515625-204.125-165.25c-3.949219-3.191406-9.589844-3.191406-13.539063 0l-204.125 165.25-13.539062-16.632812 224.433593-181.710938 224.433594 181.710938zm0 0" fill="#3d9ae2" data-original="#3D9AE2" class="" style="fill:#0E0D0D" data-old_color="#010101"/></g> </svg>
