<?xml version="1.0"?>
<svg xmlns="http://www.w3.org/2000/svg" height="512px" viewBox="-60 0 510 510.6" width="512px" class=""><g><path d="m146.199219 510.601562c-49.199219 0-89.097657-40-89.097657-89.101562v-48.601562h16.199219v48.601562c0 40.199219 32.699219 72.898438 72.898438 72.898438s72.902343-32.699219 72.902343-72.898438v-48.601562h16.199219v48.601562c0 49.101562-40 89.101562-89.101562 89.101562zm0 0" fill="#c8c5c9" data-original="#C8C5C9" class=""/><path d="m57 372.800781h16.199219v32.398438h-16.199219zm0 0" fill="#b6b1b7" data-original="#B6B1B7" class=""/><path d="m219.101562 372.800781h16.199219v32.398438h-16.199219zm0 0" fill="#b6b1b7" data-original="#B6B1B7" class=""/><path d="m113.800781 16.199219h64.800781v356.601562h-64.800781zm0 0" fill="#c8c5c9" data-original="#C8C5C9" class=""/><path d="m365 389h-178.300781c-13.398438 0-24.300781-10.898438-24.300781-24.300781v-340.398438c0-13.402343 10.902343-24.300781 24.300781-24.300781h178.300781c13.398438 0 24.300781 10.898438 24.300781 24.300781v340.398438c0 13.402343-10.902343 24.300781-24.300781 24.300781zm0 0" fill="#eceaec" data-original="#ECEAEC" class="active-path" style="fill:#ECEAEC"/><path d="m227.199219 372.800781c-26.898438 0-48.597657-21.800781-48.597657-48.601562v-322.699219c-9.402343 3.300781-16.203124 12.300781-16.203124 22.800781v340.398438c0 13.402343 10.902343 24.300781 24.300781 24.300781h178.300781c10.601562 0 19.601562-6.800781 22.898438-16.199219zm0 0" fill="#dad8db" data-original="#DAD8DB" class=""/><path d="m105.699219 389h-81c-13.398438 0-24.300781-10.898438-24.300781-24.300781v-340.398438c0-13.402343 10.902343-24.300781 24.300781-24.300781h81c13.402343 0 24.300781 10.898438 24.300781 24.300781v340.398438c0 13.402343-10.898438 24.300781-24.300781 24.300781zm0 0" fill="#eceaec" data-original="#ECEAEC" class="active-path" style="fill:#ECEAEC"/><path d="m65.101562 372.800781c-26.902343 0-48.601562-21.800781-48.601562-48.601562v-322.800781c-9.398438 3.300781-16.199219 12.402343-16.199219 22.902343v340.398438c0 13.402343 10.898438 24.300781 24.300781 24.300781h81c10.597657 0 19.597657-6.800781 22.898438-16.199219zm0 0" fill="#dad8db" data-original="#DAD8DB" class=""/><path d="m365 0h-178.300781c-13.398438 0-24.300781 10.898438-24.300781 24.300781v154h226.902343v-154c0-13.402343-10.902343-24.300781-24.300781-24.300781zm0 0" fill="#9b959d" data-original="#9B959D" class="" style="fill:#B7B5BC" data-old_color="#B6B4BB"/><path d="m340.699219 137.800781h-129.699219c-4.5 0-8.101562-3.601562-8.101562-8.101562v-81c0-4.5 3.601562-8.097657 8.101562-8.097657h129.699219c4.5 0 8.101562 3.597657 8.101562 8.097657v81c0 4.5-3.601562 8.101562-8.101562 8.101562zm0 0" fill="#b3e59f" data-original="#B3E59F" class="" style="fill:#1821A0" data-old_color="#1821A1"/><path d="m316.398438 121.601562h-81c-9 0-16.199219-7.300781-16.199219-16.203124v-32.398438c0-9 7.300781-16.199219 16.199219-16.199219h81c9 0 16.203124 7.300781 16.203124 16.199219v32.398438c0 8.902343-7.300781 16.203124-16.203124 16.203124zm0 0" fill="#ccf49f" data-original="#CCF49F" class="" style="fill:#010DFD" data-old_color="#020EFD"/><path d="m178.601562 178.300781v-176.902343c-9.402343 3.300781-16.203124 12.402343-16.203124 22.902343v154zm0 0" fill="#857e87" data-original="#857E87" class=""/><g fill="#fff"><path d="m275.800781 145.898438c-4.5 0-8.101562-3.699219-8.101562-8.097657 0-4.5 3.699219-8.101562 8.101562-8.101562 4.5 0 8.097657 3.699219 8.097657 8.101562.101562 4.398438-3.597657 8.097657-8.097657 8.097657zm0-8.097657" data-original="#000000" class="" style="fill:#0007FF" data-old_color="#ACFCB1"/><path d="m309.199219 90.300781c-1.398438 0-2.898438-.402343-4.199219-1.199219-18-10.800781-40.300781-10.800781-58.300781 0-3.800781 2.296876-8.800781 1.097657-11.097657-2.800781-2.300781-3.800781-1.101562-8.800781 2.796876-11.101562 23.101562-13.898438 51.902343-13.898438 75 0 3.800781 2.300781 5.101562 7.300781 2.800781 11.101562-1.597657 2.597657-4.300781 4-7 4zm0 0" data-original="#000000" class="" style="fill:#0007FF" data-old_color="#ACFCB1"/><path d="m292.5 118.101562c-1.398438 0-2.898438-.402343-4.199219-1.203124-7.699219-4.597657-17.199219-4.597657-24.902343 0-3.796876 2.300781-8.796876 1.101562-11.097657-2.796876-2.300781-3.800781-1.101562-8.800781 2.800781-11.101562 12.796876-7.699219 28.796876-7.699219 41.597657 0 3.800781 2.300781 5.101562 7.300781 2.800781 11.101562-1.601562 2.597657-4.300781 4-7 4zm0 0" data-original="#000000" class="" style="fill:#0007FF" data-old_color="#ACFCB1"/></g><path d="m348.800781 235c0 8.945312-7.253906 16.199219-16.199219 16.199219-8.949218 0-16.203124-7.253907-16.203124-16.199219s7.253906-16.199219 16.203124-16.199219c8.945313 0 16.199219 7.253907 16.199219 16.199219zm0 0" fill="#b3e59f" data-original="#B3E59F" class="" style="fill:#1821A0" data-old_color="#1821A1"/><path d="m340.699219 243.101562c-9 0-16.199219-7.300781-16.199219-16.203124 0-2.398438.5-4.597657 1.398438-6.699219-5.597657 2.5-9.5 8.199219-9.5 14.800781 0 9 7.300781 16.199219 16.203124 16.199219 6.597657 0 12.199219-3.898438 14.796876-9.5-2.097657.902343-4.398438 1.402343-6.699219 1.402343zm0 0" fill="#95d6a4" data-original="#95D6A4" class="" style="fill:#C8DDD0" data-old_color="#C7DDCF"/><path d="m348.800781 299.898438c0 8.949218-7.253906 16.203124-16.199219 16.203124-8.949218 0-16.203124-7.253906-16.203124-16.203124 0-8.945313 7.253906-16.199219 16.203124-16.199219 8.945313 0 16.199219 7.253906 16.199219 16.199219zm0 0" fill="#b3e59f" data-original="#B3E59F" class="" style="fill:#1821A0" data-old_color="#1821A1"/><path d="m340.699219 308c-9 0-16.199219-7.300781-16.199219-16.199219 0-2.402343.5-4.601562 1.398438-6.699219-5.597657 2.5-9.5 8.199219-9.5 14.796876 0 9 7.300781 16.203124 16.203124 16.203124 6.597657 0 12.199219-3.902343 14.796876-9.5-2.097657.898438-4.398438 1.398438-6.699219 1.398438zm0 0" fill="#95d6a4" data-original="#95D6A4" class="" style="fill:#C8DDD0" data-old_color="#C7DDCF"/></g> </svg>
