<?xml version="1.0" encoding="iso-8859-1"?>
<!-- Generator: Adobe Illustrator 19.0.0, SVG Export Plug-In . SVG Version: 6.00 Build 0)  -->
<svg version="1.1" id="Capa_1" xmlns="http://www.w3.org/2000/svg" xmlns:xlink="http://www.w3.org/1999/xlink" x="0px" y="0px"
	 viewBox="0 0 54 54" style="enable-background:new 0 0 54 54;" xml:space="preserve">
<path style="fill:#556080;" d="M34.42,31.086l-2.828-2.828l4.633-4.633c4.484-4.484,4.484-11.779,0-16.263s-11.78-4.484-16.263,0
	l-4.633,4.633L12.5,9.165l4.633-4.633c6.044-6.044,15.877-6.044,21.92,0s6.044,15.877,0,21.92L34.42,31.086z"/>
<path style="fill:#97A5AF;" d="M39.5,54h-25c-3.866,0-7-3.134-7-7V25h39v22C46.5,50.866,43.366,54,39.5,54z"/>
<path style="fill:#8697CB;" d="M39.5,54h-25c-3.866,0-7-3.134-7-7v0h39v0C46.5,50.866,43.366,54,39.5,54z"/>
<path style="fill:#ABBCC6;" d="M14.5,54h12V25h-19v22C7.5,50.866,10.634,54,14.5,54z"/>
<path style="fill:#99ADE0;" d="M7.5,47c0,3.866,3.134,7,7,7h12v-7H7.5z"/>
<rect x="33.5" y="30" style="fill:#556080;" width="5" height="12"/>
<rect x="24.5" y="30" style="fill:#556080;" width="5" height="12"/>
<rect x="15.5" y="30" style="fill:#556080;" width="5" height="12"/>
<rect x="16.5" y="31" style="fill:#313847;" width="3" height="2"/>
<rect x="16.5" y="35" style="fill:#313847;" width="3" height="2"/>
<rect x="16.5" y="39" style="fill:#8697CB;" width="3" height="2"/>
<rect x="25.5" y="31" style="fill:#313847;" width="3" height="2"/>
<rect x="25.5" y="35" style="fill:#8697CB;" width="3" height="2"/>
<rect x="25.5" y="39" style="fill:#313847;" width="3" height="2"/>
<rect x="34.5" y="31" style="fill:#313847;" width="3" height="2"/>
<rect x="34.5" y="35" style="fill:#313847;" width="3" height="2"/>
<rect x="34.5" y="39" style="fill:#8697CB;" width="3" height="2"/>
<g>
</g>
<g>
</g>
<g>
</g>
<g>
</g>
<g>
</g>
<g>
</g>
<g>
</g>
<g>
</g>
<g>
</g>
<g>
</g>
<g>
</g>
<g>
</g>
<g>
</g>
<g>
</g>
<g>
</g>
</svg>
