<?xml version="1.0" encoding="iso-8859-1"?>
<!-- Generator: Adobe Illustrator 19.0.0, SVG Export Plug-In . SVG Version: 6.00 Build 0)  -->
<svg version="1.1" id="Capa_1" xmlns="http://www.w3.org/2000/svg" xmlns:xlink="http://www.w3.org/1999/xlink" x="0px" y="0px"
	 viewBox="0 0 58 58" style="enable-background:new 0 0 58 58;" xml:space="preserve">
<path style="fill:#8697CB;" d="M33.256,51.244L33.256,51.244L33.5,51l-11-16l-5,2l11.708,17.561
	C30.025,52.954,31.487,51.736,33.256,51.244z"/>
<path style="fill:#8697CB;" d="M36.37,47.839c0.163,0.238,0.305,0.49,0.436,0.749c0.026,0.052,0.051,0.104,0.076,0.157
	c0.122,0.259,0.232,0.525,0.319,0.802c0.001,0.002,0.001,0.003,0.002,0.005c0.086,0.275,0.148,0.56,0.198,0.849
	c0.012,0.069,0.022,0.138,0.032,0.207C37.472,50.9,37.5,51.197,37.5,51.5c0,0.158-0.008,0.274-0.019,0.376
	c-0.02,0.349-0.063,0.691-0.136,1.023L52.5,49v-6L36.37,47.839z"/>
<circle style="fill:#556080;" cx="31" cy="51.5" r="6.5"/>
<path style="fill:#556080;" d="M24.5,32.556c0,3.038-2.462,4.889-5.5,4.889s-5.5-1.851-5.5-4.889H24.5z"/>
<path style="fill:#ECF0F1;" d="M30.5,33H8.776C6.967,33,5.5,31.533,5.5,29.724V3.276C5.5,1.467,6.967,0,8.776,0H30.5
	c1.809,0,3,1.467,3,3.276v26.448C33.5,31.533,32.309,33,30.5,33z"/>
<circle style="fill:#8697CB;" cx="19.5" cy="14" r="11"/>
<path style="fill:#556080;" d="M19.5,21c-3.86,0-7-3.14-7-7s3.14-7,7-7s7,3.14,7,7S23.36,21,19.5,21z"/>
<circle style="fill:#E64C3C;" cx="29.5" cy="3" r="1"/>
<path style="fill:#D1D4D1;" d="M29.5,33h-20v-2.074C9.5,29.31,10.81,28,12.426,28h14.149c1.616,0,2.926,1.31,2.926,2.926V33z"/>
<path style="fill:#D0E8F9;" d="M15.5,15c-0.552,0-1-0.448-1-1c0-2.757,2.243-5,5-5c0.552,0,1,0.448,1,1s-0.448,1-1,1
	c-1.654,0-3,1.346-3,3C16.5,14.552,16.052,15,15.5,15z"/>
<g>
</g>
<g>
</g>
<g>
</g>
<g>
</g>
<g>
</g>
<g>
</g>
<g>
</g>
<g>
</g>
<g>
</g>
<g>
</g>
<g>
</g>
<g>
</g>
<g>
</g>
<g>
</g>
<g>
</g>
</svg>
